<svg xmlns="http://www.w3.org/2000/svg" viewBox="0 0 32 32">
  <defs>
    <linearGradient id="g" x1="0" y1="0" x2="1" y2="1">
      <stop offset="0%" stop-color="#a855f7"/>
      <stop offset="100%" stop-color="#7c3aed"/>
    </linearGradient>
  </defs>
  <rect width="32" height="32" rx="6" fill="#0a0a0a"/>
  <path d="M22.5 4.5c-1.2 1-3.5 3.8-5 7-1.3 2.8-2.5 6-3.2 8.5-.3 1-.5 2-.6 2.8l-.2 1.2c-.1.5-.4.8-.8.9-.5.1-1-.1-1.2-.5L10 21.5c-.3-.8-.5-1.5-.4-2.3.2-2 1-4.2 2.2-6.2 1.4-2.3 3.2-4.3 5-5.8 1.5-1.2 3-2.1 4.2-2.5.5-.2.9-.1 1.2.1.3.2.4.5.3.8l-.1.4z" fill="url(#g)"/>
  <path d="M9.5 24c.5-.3 1.2-.4 2-.3.6.1 1.2.3 1.8.6.4.2.5.5.4.8-.2.3-.5.5-.9.4-.5-.1-1-.3-1.5-.4-.6-.1-1.1 0-1.5.2-.3.1-.6.1-.8-.1-.2-.2-.1-.5.1-.7l.4-.3z" fill="#d8b4fe"/>
  <circle cx="9" cy="25.5" r="1" fill="#d8b4fe" opacity=".6"/>
</svg>
