<svg viewBox="0 0 64 64" fill="none" xmlns="http://www.w3.org/2000/svg">
  <!-- Open book -->
  <path d="M32 14C26 10 18 8 8 10V50C18 48 26 50 32 54C38 50 46 48 56 50V10C46 8 38 10 32 14Z" fill="#1e1b4b" stroke="#a78bfa" stroke-width="2.5" stroke-linejoin="round"/>
  <!-- Center spine -->
  <line x1="32" y1="14" x2="32" y2="54" stroke="#a78bfa" stroke-width="2"/>
  <!-- Left page lines -->
  <line x1="14" y1="20" x2="28" y2="22" stroke="#7c3aed" stroke-width="1.5" stroke-linecap="round" opacity="0.6"/>
  <line x1="14" y1="28" x2="28" y2="28" stroke="#7c3aed" stroke-width="1.5" stroke-linecap="round" opacity="0.6"/>
  <line x1="14" y1="36" x2="28" y2="34" stroke="#7c3aed" stroke-width="1.5" stroke-linecap="round" opacity="0.6"/>
  <!-- Right page lines -->
  <line x1="36" y1="22" x2="50" y2="20" stroke="#7c3aed" stroke-width="1.5" stroke-linecap="round" opacity="0.6"/>
  <line x1="36" y1="28" x2="50" y2="28" stroke="#7c3aed" stroke-width="1.5" stroke-linecap="round" opacity="0.6"/>
  <line x1="36" y1="34" x2="50" y2="36" stroke="#7c3aed" stroke-width="1.5" stroke-linecap="round" opacity="0.6"/>
  <!-- Sparkle/magic dots -->
  <circle cx="22" cy="44" r="1.5" fill="#c4b5fd"/>
  <circle cx="42" cy="44" r="1.5" fill="#c4b5fd"/>
  <circle cx="32" cy="8" r="2" fill="#a78bfa"/>
</svg>
