<svg xmlns="http://www.w3.org/2000/svg" width="1200" height="630" viewBox="0 0 1200 630">
  <rect width="1200" height="630" fill="#0a0a0a"/>
  <defs>
    <linearGradient id="g" x1="0" y1="0" x2="1" y2="1">
      <stop offset="0%" stop-color="#1e1b4b" stop-opacity="0.5"/>
      <stop offset="100%" stop-color="#0a0a0a" stop-opacity="0"/>
    </linearGradient>
  </defs>
  <rect width="1200" height="630" fill="url(#g)"/>
  <!-- Quill with branching paths icon -->
  <g transform="translate(530, 60) scale(3.2)">
    <circle cx="32" cy="32" r="30" fill="#1e1b4b" opacity="0.7"/>
    <path d="M20 48L28 28L44 12C48 8 54 10 52 16L36 32L20 48Z" fill="#a78bfa"/>
    <path d="M20 48L28 28L30 30L22 48Z" fill="#7c3aed"/>
    <path d="M36 32Q42 36 48 32" stroke="#c4b5fd" stroke-width="2.5" stroke-linecap="round" fill="none"/>
    <path d="M36 32Q40 40 44 44" stroke="#c4b5fd" stroke-width="2.5" stroke-linecap="round" fill="none"/>
    <path d="M36 32Q34 40 30 44" stroke="#c4b5fd" stroke-width="2.5" stroke-linecap="round" fill="none"/>
    <circle cx="48" cy="32" r="2.5" fill="#e9d5ff"/>
    <circle cx="44" cy="44" r="2.5" fill="#e9d5ff"/>
    <circle cx="30" cy="44" r="2.5" fill="#e9d5ff"/>
    <circle cx="20" cy="48" r="2" fill="#c4b5fd"/>
  </g>
  <!-- Brand name -->
  <text x="600" y="340" font-family="system-ui, -apple-system, sans-serif" font-size="68" font-weight="800" text-anchor="middle" fill="white">Interactive <tspan fill="#a78bfa">Fiction</tspan></text>
  <!-- Tagline -->
  <text x="600" y="400" font-family="system-ui, -apple-system, sans-serif" font-size="28" text-anchor="middle" fill="#a3a3a3">Choose Your Path, Shape the Story</text>
  <!-- Subtitle -->
  <text x="600" y="460" font-family="system-ui, -apple-system, sans-serif" font-size="20" text-anchor="middle" fill="#737373">AI-Powered Stories — Fantasy, Horror, Sci-Fi, Mystery &amp; More</text>
  <!-- Bottom accent line -->
  <rect x="450" y="520" width="300" height="3" rx="2" fill="#7c3aed" opacity="0.6"/>
</svg>
